<svg id="facebook-logo" xmlns="http://www.w3.org/2000/svg" width="11.139" height="20.604" viewBox="0 0 11.139 20.604">
  <path id="Path_1" data-name="Path 1" d="M32.8,0,30.125,0a4.692,4.692,0,0,0-4.942,5.071V7.408H22.5a.42.42,0,0,0-.42.42v3.387a.42.42,0,0,0,.42.42h2.686v8.547a.42.42,0,0,0,.42.42h3.505a.42.42,0,0,0,.42-.42V11.636H32.67a.42.42,0,0,0,.42-.42V7.829a.42.42,0,0,0-.42-.42H29.529V5.427c0-.953.227-1.436,1.468-1.436h1.8a.42.42,0,0,0,.42-.42V.424A.42.42,0,0,0,32.8,0Z" transform="translate(-22.077)" fill="#3a559f"/>
</svg>
