<svg id="instagram" xmlns="http://www.w3.org/2000/svg" xmlns:xlink="http://www.w3.org/1999/xlink" width="15.88" height="15.88" viewBox="0 0 15.88 15.88">
  <defs>
    <linearGradient id="linear-gradient" x1="0.5" y1="0.008" x2="0.5" y2="0.998" gradientUnits="objectBoundingBox">
      <stop offset="0" stop-color="#e09b3d"/>
      <stop offset="0.3" stop-color="#c74c4d"/>
      <stop offset="0.6" stop-color="#c21975"/>
      <stop offset="1" stop-color="#7024c4"/>
    </linearGradient>
    <linearGradient id="linear-gradient-2" y1="-0.451" y2="1.462" xlink:href="#linear-gradient"/>
    <linearGradient id="linear-gradient-3" y1="-1.396" y2="6.586" xlink:href="#linear-gradient"/>
  </defs>
  <path id="Path_9" data-name="Path 9" d="M11.149,0H4.731A4.736,4.736,0,0,0,0,4.731v6.419A4.736,4.736,0,0,0,4.731,15.88h6.419a4.736,4.736,0,0,0,4.731-4.731V4.731A4.736,4.736,0,0,0,11.149,0Zm3.133,11.149a3.133,3.133,0,0,1-3.133,3.133H4.731A3.133,3.133,0,0,1,1.6,11.149V4.731A3.133,3.133,0,0,1,4.731,1.6h6.419a3.133,3.133,0,0,1,3.133,3.133v6.419Z" fill="url(#linear-gradient)"/>
  <path id="Path_10" data-name="Path 10" d="M137.107,133a4.107,4.107,0,1,0,4.107,4.107A4.112,4.112,0,0,0,137.107,133Zm0,6.617a2.51,2.51,0,1,1,2.51-2.51A2.51,2.51,0,0,1,137.107,139.617Z" transform="translate(-129.167 -129.167)" fill="url(#linear-gradient-2)"/>
  <circle id="Ellipse_1" data-name="Ellipse 1" cx="0.984" cy="0.984" r="0.984" transform="translate(11.071 2.88)" fill="url(#linear-gradient-3)"/>
</svg>
